<?xml version="1.0" standalone="no"?>
<!DOCTYPE svg PUBLIC "-//W3C//DTD SVG 20010904//EN"
 "http://www.w3.org/TR/2001/REC-SVG-20010904/DTD/svg10.dtd">
<svg version="1.0" xmlns="http://www.w3.org/2000/svg"
 width="512.000000pt" height="512.000000pt" viewBox="0 0 512.000000 512.000000"
 preserveAspectRatio="xMidYMid meet">

<g transform="translate(0.000000,512.000000) scale(0.100000,-0.100000)"
fill="#000000" stroke="none">
<path d="M2001 5109 c-46 -14 -124 -94 -139 -145 -7 -23 -12 -97 -12 -167 l0
-126 -327 -3 -328 -3 -60 -28 c-78 -36 -150 -107 -186 -182 -16 -33 -29 -66
-29 -72 0 -10 -27 -13 -104 -13 -94 0 -109 -3 -157 -28 -103 -54 -129 -124
-129 -347 0 -223 26 -293 129 -347 41 -21 67 -28 112 -28 l59 0 0 -1682 c0
-1053 4 -1705 10 -1743 13 -79 50 -131 119 -167 l53 -28 1189 0 1189 0 0 75 0
75 -1174 0 c-1172 0 -1173 0 -1200 21 l-26 20 0 1715 0 1714 1570 0 1570 0 0
-1714 0 -1715 -26 -20 c-24 -19 -40 -21 -150 -21 l-124 0 0 -75 0 -75 138 0
c131 0 141 1 193 28 69 35 106 87 119 167 6 38 10 690 10 1743 l0 1682 58 0
c44 0 72 7 113 28 102 52 129 123 129 347 0 224 -27 295 -129 348 -49 24 -65
27 -158 27 -76 0 -103 3 -103 13 0 6 -13 39 -29 72 -36 75 -108 146 -186 182
l-60 28 -322 3 -323 3 0 103 c0 194 -30 268 -129 319 l-55 27 -530 -1 c-308 0
-545 -5 -565 -10z m1091 -153 c29 -22 38 -63 38 -177 l0 -109 -565 0 -565 0 0
125 c0 120 1 127 25 150 l24 25 513 0 c405 -1 517 -3 530 -14z m812 -448 c44
-13 136 -96 136 -123 0 -13 -130 -15 -1265 -15 l-1265 0 0 -75 0 -75 1434 0
1433 0 27 -21 26 -20 0 -184 0 -184 -26 -20 -27 -21 -1817 0 -1817 0 -27 21
-26 20 0 184 0 184 26 20 c26 20 38 21 335 21 l309 0 0 75 0 75 -140 0 c-77 0
-140 4 -140 9 0 15 44 74 71 93 65 49 18 47 1408 48 999 0 1313 -3 1345 -12z"/>
<path d="M1585 3078 c-3 -7 -4 -548 -3 -1203 l3 -1190 375 0 375 0 0 1200 0
1200 -373 3 c-293 2 -374 0 -377 -10z m595 -1193 l0 -1045 -220 0 -220 0 0
1045 0 1045 220 0 220 0 0 -1045z"/>
<path d="M2785 3078 c-3 -7 -4 -548 -3 -1203 l3 -1190 375 0 375 0 0 1200 0
1200 -373 3 c-293 2 -374 0 -377 -10z m595 -1193 l0 -1045 -220 0 -220 0 0
1045 0 1045 220 0 220 0 0 -1045z"/>
<path d="M3530 75 l0 -75 80 0 80 0 0 75 0 75 -80 0 -80 0 0 -75z"/>
</g>
</svg>
