<?xml version="1.0" standalone="no"?>
<!DOCTYPE svg PUBLIC "-//W3C//DTD SVG 20010904//EN"
 "http://www.w3.org/TR/2001/REC-SVG-20010904/DTD/svg10.dtd">
<svg version="1.0" xmlns="http://www.w3.org/2000/svg"
 width="100.000000pt" height="100.000000pt" viewBox="0 0 100.000000 100.000000"
 preserveAspectRatio="xMidYMid meet">

<g transform="translate(0.000000,100.000000) scale(0.100000,-0.100000)"
fill="#000000" stroke="none">
<path d="M432 878 c-7 -7 -12 -21 -12 -33 0 -18 -14 -23 -112 -45 l-113 -25
-3 -38 c-2 -26 1 -39 12 -43 14 -5 16 -40 16 -266 l0 -259 25 -24 c24 -24 28
-25 183 -25 132 0 165 -3 193 -17 52 -27 147 -24 191 6 113 78 117 245 7 318
l-39 26 0 117 c0 96 3 119 15 124 9 3 15 19 15 41 0 42 -4 44 -137 71 -82 16
-93 21 -93 39 0 34 -20 45 -80 45 -31 0 -61 -5 -68 -12z m118 -33 c0 -11 -12
-15 -50 -15 -38 0 -50 4 -50 15 0 11 12 15 50 15 38 0 50 -4 50 -15z m103 -65
c122 -27 127 -29 127 -46 0 -12 -44 -14 -280 -14 -241 0 -280 2 -280 15 0 8
12 18 27 21 193 49 271 53 406 24z m-308 -330 l0 -215 -25 0 -25 0 -3 205 c-1
112 0 211 3 218 3 7 15 12 27 10 l23 -3 0 -215z m120 0 l0 -215 -25 0 -25 0
-3 205 c-1 112 0 211 3 218 3 7 15 12 27 10 l23 -3 0 -215z m123 78 l3 -137
29 17 29 17 3 120 3 120 25 0 25 0 3 -113 c2 -96 5 -114 20 -119 69 -23 102
-47 121 -87 39 -80 20 -156 -52 -210 -36 -26 -135 -29 -164 -5 -10 9 -25 19
-34 22 -9 3 -28 27 -43 52 -26 47 -26 50 -26 250 0 111 3 205 7 209 4 4 16 6
28 4 19 -3 20 -11 23 -140z"/>
</g>
</svg>
